<svg width="197" height="197" viewBox="0 0 197 197" fill="none" xmlns="http://www.w3.org/2000/svg">
<path d="M61.4756 126.789C66.5034 126.847 71.5364 126.823 76.3904 126.837C76.3694 119.515 76.3495 112.592 76.3284 105.232C72.5766 105.221 69.2434 105.392 65.9362 105.159C61.5809 104.846 57.0852 104.811 52.9391 103.62C38.6695 99.511 29.3264 84.7588 31.4079 70.3452C33.6599 54.7693 46.4576 43.6189 61.932 43.7508C76.9828 43.8816 89.8018 55.1986 91.9028 70.2739C92.1745 72.2184 92.2833 74.2061 92.289 76.1717C92.3602 89.6141 92.2576 103.056 92.4482 116.493C92.6789 132.546 99.1399 145.767 111.191 156.29C111.686 156.722 112.214 157.112 112.742 157.501C112.96 157.665 113.22 157.775 113.802 158.094C113.881 157.155 113.998 156.391 113.996 155.632C113.929 128.469 113.938 101.3 113.746 74.1369C113.547 46.3565 91.9105 23.8159 63.96 22.0373C54.7499 21.4484 45.8463 23.5903 37.9745 27.6953C54.721 11.3912 77.5503 1.37809 102.765 1.45076C154.291 1.59925 196.186 43.7392 196.335 95.5701C196.347 99.5668 196.081 103.492 195.609 107.35C191.253 82.4081 170.183 63.9367 143.437 63.8269C138.789 63.808 134.142 63.8001 129.733 63.7874C129.754 71.0436 129.774 77.9613 129.794 85.2012C131.141 85.2924 132.119 85.388 133.096 85.4127C137.95 85.525 142.852 85.2115 147.654 85.8041C160.336 87.3749 169.109 94.4707 173.259 106.565C177.398 118.622 174.634 129.583 165.586 138.336C156.441 147.177 145.468 149.121 133.435 144.762C132.484 144.421 131.554 144.025 130.195 143.492C130.213 149.476 130.229 155.16 130.245 160.844C130.262 166.768 130.262 166.768 135.939 167.832C147.2 169.945 158.379 167.941 168.013 163C151.277 179.244 128.481 189.224 103.31 189.152C51.7835 189.003 9.88818 146.863 9.7393 95.0324C9.7279 91.063 9.98818 87.1654 10.4549 83.323C14.7701 107.446 35.701 126.491 61.4756 126.789Z" fill="#E52521"/>
<path d="M54.3419 131.163C59.5598 131.222 64.7775 131.199 69.8162 131.213C69.7944 123.618 69.7737 116.438 69.7518 108.8C65.8588 108.788 62.4007 108.964 58.9685 108.725C54.4502 108.401 49.7862 108.365 45.4825 107.124C30.6802 102.861 20.988 87.5562 23.1494 72.6075C25.4811 56.4527 38.7611 44.883 54.8112 45.0221C70.4269 45.1599 83.7194 56.8935 85.8982 72.5372C86.1809 74.5582 86.2899 76.6115 86.3012 78.6535C86.3739 92.5986 86.2673 106.543 86.4703 120.483C86.7136 137.137 93.4096 150.85 105.913 161.767C106.424 162.217 106.974 162.622 107.523 163.028C107.752 163.198 108.018 163.308 108.622 163.643C108.7 162.671 108.828 161.88 108.826 161.088C108.756 132.909 108.767 104.724 108.567 76.5446C108.365 47.7262 85.9172 24.3419 56.9183 22.5002C47.366 21.8939 38.1259 24.1059 29.9613 28.3684C47.336 11.4543 71.0223 1.0667 97.182 1.1421C150.636 1.29615 194.089 45.0085 194.244 98.7789C194.256 102.923 193.979 106.995 193.491 111.002C188.976 85.1302 167.116 65.9681 139.371 65.8499C134.549 65.8306 129.728 65.8221 125.151 65.8089C125.172 73.3383 125.193 80.5128 125.214 88.0204C126.61 88.1118 127.626 88.2184 128.641 88.2432C133.68 88.3615 138.766 88.0321 143.742 88.6471C156.902 90.2793 166.001 97.6383 170.305 110.187C174.598 122.697 171.731 134.068 162.342 143.142C152.856 152.315 141.476 154.33 128.986 149.806C128.002 149.448 127.035 149.041 125.627 148.486C125.645 154.694 125.662 160.59 125.679 166.487C125.696 172.635 125.696 172.635 131.585 173.739C143.265 175.929 154.867 173.85 164.859 168.724C147.5 185.584 123.847 195.933 97.7358 195.858C44.2818 195.704 0.828631 151.992 0.674181 98.2211C0.662356 94.1042 0.933101 90.0591 1.41574 86.0747C5.89096 111.1 27.606 130.851 54.3419 131.163Z" stroke="white" stroke-miterlimit="10"/>
</svg>
