<svg width="2007" height="751" viewBox="0 0 2007 751" fill="none" xmlns="http://www.w3.org/2000/svg">
<path d="M15.0088 239.429C146.064 227.745 238.558 190.583 299.173 158.41C360.468 125.875 404.613 90.1837 485.28 70.995C574.251 49.6742 632.385 59.2259 655.378 64.5987C687.256 72.061 685.275 77.1354 737.425 94.4478C837.603 127.708 856.634 112.912 901.52 134.957C975.943 171.501 953.75 226.957 1031.59 288.467C1087.97 333.027 1181.3 368.484 1265.73 343.901C1345.24 320.747 1354.18 262.605 1437.83 254.354C1472.19 250.964 1500.77 258.49 1557.9 273.542C1631.12 292.731 1680.29 316.397 1699.98 324.712C1758.31 349.38 1852.47 364.902 2006.16 316.184" stroke="white" stroke-opacity="0.26" stroke-miterlimit="10"/>
<path d="M14.1279 258.234C140.901 248.149 235.676 214.505 301.794 181.159C355.505 153.698 396.468 123.593 452.921 102.081C465.268 97.3901 478.276 92.8488 492.284 88.9258C580.554 64.2363 638.468 68.3086 662.642 70.8031C695.06 74.1291 695.06 77.9242 746.17 94.7463C782.191 106.579 807.846 113.338 827.717 117.773C861.496 125.299 878.406 125.811 905.062 140.288C915.008 145.645 924.341 152.205 932.878 159.839C972.36 195.125 970.679 239.856 1036.18 287.273C1093.19 328.55 1185.9 359.764 1268.89 335.351C1275.47 333.413 1281.94 331.122 1288.3 328.486C1352.46 301.856 1366.87 255.015 1440.39 247.659C1448.14 246.872 1455.93 246.637 1463.7 246.955C1489.84 247.936 1516.85 254.887 1559.64 266.144C1630.52 284.906 1678.93 308.125 1700.64 317.314C1716.54 323.982 1732.94 329.217 1749.67 332.963C1807.54 346.097 1889.35 347.462 2004.44 313.945" stroke="white" stroke-opacity="0.26" stroke-miterlimit="10"/>
<path d="M13.2471 278.702C135.718 270.174 232.874 240.325 304.415 205.401C361.228 177.684 404.092 146.023 459.504 123.423C472.152 118.242 485.259 112.997 499.327 108.498C586.898 80.4188 644.511 77.0288 669.966 78.6492C702.765 80.7812 704.946 80.3762 754.935 96.6866C789.935 108.136 815.49 115.875 834.981 121.312C867.82 130.416 883.609 132.25 908.543 147.281C918.044 153.07 926.974 159.862 935.199 167.557C973.341 202.608 975.222 244.653 1040.8 287.806C1098.45 325.778 1190.55 352.749 1272.09 328.507C1279 326.375 1285.38 324.243 1291.36 321.685C1357.54 294.565 1372.19 249.898 1443.01 242.798C1450.7 241.991 1458.43 241.728 1466.14 242.009C1492.72 242.841 1519.7 249.599 1561.44 260.75C1630 279.001 1677.61 301.835 1701.36 311.685C1717.14 318.293 1733.38 323.541 1749.95 327.377C1807.3 340.81 1888.73 343.645 2002.67 313.455" stroke="white" stroke-opacity="0.26" stroke-miterlimit="10"/>
<path d="M12.3857 300.556C130.554 293.669 230.031 267.338 307.056 231.135C366.89 202.992 411.716 169.881 466.047 146.172C479.015 140.501 492.242 134.574 506.331 129.478C593.201 98.0511 650.414 91.463 677.249 87.8811C710.448 83.4677 714.791 84.2139 763.679 100.013C797.699 111.035 823.153 119.777 842.364 126.216C874.243 136.876 888.951 140.074 912.165 155.639C921.148 161.868 929.623 168.893 937.499 176.639C974.3 211.435 979.864 250.772 1045.36 289.64C1103.74 324.307 1195.13 347.057 1275.23 322.964C1282.08 320.832 1288.42 318.7 1294.36 316.205C1362.52 288.488 1377.47 246.081 1445.55 239.024C1453.18 238.198 1460.86 237.906 1468.53 238.15C1495.54 238.811 1522.56 245.42 1563.2 256.358C1629.4 274.075 1676.25 296.505 1702.02 307.187C1717.7 313.694 1733.81 318.947 1750.23 322.9C1807.06 336.631 1888.11 340.959 2000.89 314.073" stroke="white" stroke-opacity="0.26" stroke-miterlimit="10"/>
<path d="M11.5078 322.452C125.393 317.165 227.152 294.394 309.68 256.891C372.556 228.3 419.323 193.717 472.614 168.943C485.881 162.781 499.209 156.15 513.357 150.479C599.527 115.769 656.22 103.957 684.556 97.177C718.035 89.1604 724.579 88.1156 772.447 103.403C805.566 114.063 830.8 123.743 849.691 131.12C880.609 143.315 894.217 147.92 915.729 163.996C924.179 170.652 932.202 177.903 939.743 185.701C975.223 220.198 984.469 256.848 1049.91 291.559C1109 322.9 1199.67 341.449 1278.36 317.527C1285.12 315.395 1291.43 313.263 1297.35 310.811C1367.51 282.519 1382.72 242.585 1448.08 235.442C1455.66 234.627 1463.27 234.307 1470.89 234.483C1498.31 234.995 1525.24 241.433 1564.94 252.158C1628.82 269.385 1674.89 291.431 1702.68 302.88C1718.25 309.324 1734.23 314.589 1750.49 318.636C1806.82 332.686 1887.49 338.464 1999.13 314.926" stroke="white" stroke-opacity="0.26" stroke-miterlimit="10"/>
<path d="M10.666 336.567C120.269 332.878 224.329 313.69 312.34 274.886C378.238 245.825 426.966 209.708 479.216 183.953C492.764 177.279 506.232 170.03 520.42 163.719C605.849 125.725 662.082 108.797 691.839 98.6694C725.618 87.1988 734.483 84.1925 781.19 98.9892C806.984 107.19 832.302 117 857.014 128.369C887.031 142.078 899.499 148.134 919.25 164.615C927.875 171.842 934.719 179.539 942.123 187.023C976.283 221.136 989.23 255.249 1054.55 285.695C1114.42 313.689 1204.33 328.06 1281.58 304.308C1288.28 302.176 1294.55 300.044 1300.43 297.635C1372.61 268.831 1388.08 231.007 1450.72 224.078C1458.24 223.261 1465.79 222.919 1473.35 223.055C1501.21 223.46 1528.1 229.664 1566.72 240.111C1628.26 256.784 1673.56 278.489 1703.36 290.706C1718.83 297.081 1734.68 302.352 1750.81 306.483C1806.62 320.853 1886.89 328.124 1997.39 307.89" stroke="white" stroke-opacity="0.26" stroke-miterlimit="10"/>
<path d="M9.74316 346.63C115.044 344.498 221.405 328.87 314.919 288.808C383.839 259.279 434.488 221.584 485.738 194.997C499.586 187.79 513.153 179.902 527.402 172.994C612.19 131.781 667.983 109.756 699.141 96.2388C733.16 81.4209 744.327 76.3465 789.953 90.6314C815.518 98.6368 840.396 108.951 864.316 121.461C893.353 136.642 904.759 144.189 922.79 161.246C930.794 168.772 937.098 176.789 944.442 184.358C977.301 218.258 993.971 249.429 1059.13 275.845C1119.82 300.449 1208.95 310.683 1284.76 287.081C1291.38 284.949 1297.59 282.817 1303.47 280.45C1377.67 251.198 1393.46 215.55 1453.3 208.877C1460.76 208.037 1468.26 207.667 1475.77 207.768C1504.02 208.024 1530.92 214.036 1568.48 224.355C1627.68 240.538 1672.2 261.837 1704.04 274.864C1719.4 281.159 1735.11 286.435 1751.09 290.663C1806.4 305.353 1886.29 314.116 1995.65 297.166" stroke="white" stroke-opacity="0.26" stroke-miterlimit="10"/>
<path d="M8.88477 356.843C109.883 356.352 218.506 344.2 317.563 302.88C389.484 272.86 442.034 233.545 492.283 205.998C506.432 198.216 520.14 189.688 534.428 182.226C618.536 137.836 673.928 110.801 706.427 93.7443C740.907 75.6642 754.174 68.4578 798.7 82.231C824.08 90.1526 848.547 101.08 871.642 114.809C899.658 131.418 910.024 140.543 926.354 158.026C933.678 165.872 939.481 174.145 946.745 181.863C978.324 215.401 998.775 243.8 1063.73 266.144C1125.27 287.316 1213.56 293.435 1287.86 270.025C1294.43 267.892 1300.59 265.76 1306.43 263.415C1382.66 233.566 1398.63 200.156 1455.82 193.526C1463.22 192.686 1470.67 192.287 1478.11 192.332C1506.81 192.332 1533.66 198.259 1570.16 208.407C1627.04 224.036 1670.76 244.994 1704.64 258.767C1719.9 265.008 1735.48 270.305 1751.31 274.63C1806.1 289.554 1885.61 299.81 1993.81 286.228" stroke="white" stroke-opacity="0.26" stroke-miterlimit="10"/>
<path d="M8.00391 367.098C104.72 368.207 215.624 359.572 320.184 316.994C395.127 286.484 449.579 245.527 498.847 217.149C513.255 208.855 527.123 199.751 541.431 191.564C624.88 143.997 679.911 111.952 713.731 91.3564C748.631 70.0356 764.02 60.6545 807.465 73.916C832.652 81.7461 856.711 93.2244 878.966 108.029C906.122 126.088 915.267 136.791 929.895 154.7C936.559 162.888 941.902 171.373 949.067 179.241C979.364 212.437 1003.56 238.001 1068.32 256.337C1130.73 274.012 1218.16 276.101 1291.08 252.84C1297.59 250.708 1303.71 248.576 1309.51 246.295C1387.78 215.998 1403.97 184.72 1458.46 178.217C1465.81 177.376 1473.2 176.949 1480.59 176.938C1509.71 176.746 1536.63 182.545 1572.03 192.481C1626.54 207.597 1669.5 228.193 1705.4 242.734C1720.55 248.932 1735.99 254.263 1751.67 258.703C1805.96 274.012 1885.09 285.674 1992.15 275.419" stroke="white" stroke-opacity="0.26" stroke-miterlimit="10"/>
<path d="M7.12402 377.311C99.5573 379.955 212.783 374.816 322.846 331.002C400.891 299.98 457.124 257.36 505.451 228.193C520.14 219.324 534.148 209.644 548.496 200.86C631.264 150.18 685.955 113.146 721.076 88.9045C756.476 64.4496 773.926 52.8084 816.271 65.5582C841.283 73.3612 864.938 85.4442 886.311 101.335C912.526 120.779 920.531 133.145 933.458 151.46C939.462 159.988 944.284 168.666 951.469 176.703C980.525 209.537 1008.5 232.138 1073.02 246.593C1136.32 260.729 1222.87 258.831 1294.37 235.741C1300.79 233.609 1306.87 231.477 1312.66 229.345C1392.94 198.579 1409.37 169.433 1461.12 163.101C1468.43 162.215 1475.78 161.759 1483.14 161.736C1512.67 161.523 1539.49 167.003 1573.93 176.661C1626.1 191.266 1668.28 211.499 1706.22 226.807C1719.93 232.351 1735.12 237.83 1752.11 242.734C1805.88 258.341 1884.63 271.496 1990.53 264.545" stroke="white" stroke-opacity="0.26" stroke-miterlimit="10"/>
<path d="M6.24609 387.225C94.2969 391.489 209.823 389.869 325.43 344.839C406.397 313.306 464.57 268.98 511.978 239.045C526.926 229.6 541.094 219.366 555.483 209.943C637.65 156.15 692.042 114.148 728.322 86.282C764.223 58.565 783.714 44.7918 824.978 57.0299C849.844 64.8129 873.124 77.482 893.618 94.3839C918.932 115.236 925.636 129.286 936.983 147.963C942.326 156.833 946.668 165.723 953.692 173.91C981.508 206.339 1013.25 226.104 1077.5 236.594C1141.76 247.083 1227.37 241.284 1297.43 218.364C1303.79 216.232 1309.84 214.1 1315.58 211.968C1397.91 180.733 1414.58 153.72 1463.67 147.537C1470.9 146.636 1478.18 146.159 1485.46 146.108C1515.48 145.703 1542.21 151.033 1575.51 160.564C1625.36 174.635 1666.74 194.528 1706.73 210.582C1720.37 216.083 1735.44 221.541 1752.23 226.551C1805.48 242.457 1883.85 257.083 1988.61 253.48" stroke="white" stroke-opacity="0.26" stroke-miterlimit="10"/>
<path d="M5.38379 397.011C89.2121 402.917 206.92 404.729 328.07 358.506C412.118 326.525 472.033 280.386 518.52 249.77C533.748 239.728 548.077 228.961 562.545 218.897C644.072 161.971 698.183 115.065 735.605 83.4464C772.086 52.7018 793.638 36.5407 833.661 48.2884C860.237 56.0918 884.371 72.2317 900.88 87.2202C925.314 109.436 930.897 125.214 940.483 144.253C945.126 153.464 949.008 162.568 955.932 170.926C982.527 202.907 1017.97 219.729 1082 226.36C1147.1 233.161 1231.89 223.524 1300.51 200.775C1306.79 198.643 1312.8 196.51 1318.52 194.378C1402.87 162.653 1419.76 137.772 1466.09 131.759C1473.27 130.845 1480.49 130.34 1487.72 130.246C1518.12 129.627 1544.85 134.829 1577.21 144.168C1624.72 157.728 1665.26 177.258 1707.29 194.08C1720.87 199.517 1735.82 204.996 1752.39 210.071C1805.14 226.296 1883.13 242.393 1986.73 242.052" stroke="white" stroke-opacity="0.26" stroke-miterlimit="10"/>
<path d="M4.50293 406.67C84.0488 414.196 203.938 419.206 330.691 372.023C417.601 339.275 479.477 291.644 525.083 260.281C540.552 249.621 555.1 238.342 569.529 227.639C650.495 167.706 704.346 115.726 742.909 80.5255C779.99 46.6681 803.383 28.2469 842.486 39.4616C868.121 46.8813 892.135 63.8739 908.264 79.9711C931.818 103.552 936.06 121.035 944.085 140.458C948.087 150.01 951.469 159.284 958.313 167.813C983.687 199.453 1022.89 213.183 1086.69 216.147C1152.72 219.196 1236.59 205.785 1303.77 183.185C1310 181.067 1315.96 178.935 1321.64 176.789C1408.05 144.637 1425.16 121.845 1468.77 116.003C1475.89 115.065 1483.05 114.531 1490.22 114.404C1521.04 113.615 1547.77 118.668 1579.09 127.794C1624.24 140.821 1664.04 160.095 1708.13 177.599C1721.65 183.015 1736.46 188.451 1752.85 193.611C1805.08 210.156 1882.69 227.724 1985.14 230.752" stroke="white" stroke-opacity="0.26" stroke-miterlimit="10"/>
<path d="M3.62109 416.179C78.8645 425.282 201.055 433.811 333.311 385.391C423.243 352.152 486.94 302.688 531.645 270.707C547.355 259.471 562.063 247.638 576.551 236.295C656.938 173.313 710.629 116.344 750.191 77.4339C787.913 40.4423 813.228 19.6759 851.15 30.4003C875.864 37.4148 899.778 55.2816 915.487 72.5301C938.2 97.4754 941.102 116.707 947.505 136.492C950.747 146.407 953.769 155.873 960.493 164.551C984.807 195.764 1027.75 208.557 1091.29 205.678C1158.09 202.651 1241.21 187.79 1306.97 165.361C1313.14 163.243 1319.05 161.111 1324.7 158.965C1413.19 126.514 1430.48 105.663 1471.37 99.9913C1478.43 99.0451 1485.54 98.4901 1492.66 98.3283C1523.9 97.3902 1550.69 102.251 1580.87 111.121C1623.6 123.743 1662.7 142.782 1708.8 160.926C1722.27 166.299 1736.96 171.736 1753.13 176.981C1804.86 193.845 1882.08 212.885 1983.38 219.238" stroke="white" stroke-opacity="0.26" stroke-miterlimit="10"/>
<path d="M2.66113 425.581C73.622 436.241 198.094 448.33 335.853 398.653C428.807 364.923 494.205 313.647 538.11 280.941C554.119 269.087 568.988 256.763 583.476 244.696C663.322 178.601 716.713 116.771 757.416 74.1292C795.858 34.0462 823.134 11.0623 859.995 21.2537C883.769 27.8631 907.583 46.5828 922.892 64.9826C944.764 91.2498 946.265 112.229 951.168 132.356C953.689 142.633 956.311 152.27 962.935 161.139C985.948 191.927 1032.45 199.517 1095.87 195.082C1163.55 190.413 1245.8 169.668 1310.11 147.409C1316.12 145.277 1322.12 143.145 1327.71 141.013C1418.22 108.072 1435.77 89.331 1473.93 83.8515C1480.93 82.8796 1487.98 82.296 1495.04 82.1032C1526.7 80.9945 1553.4 85.7064 1582.61 94.4053C1623.1 106.409 1661.34 124.979 1709.47 143.997C1722.89 149.328 1737.48 154.658 1753.49 160.095C1804.7 177.151 1881.56 197.768 1981.62 207.448" stroke="white" stroke-opacity="0.26" stroke-miterlimit="10"/>
<path d="M1.88086 434.877C68.5393 447.179 195.272 462.743 338.575 411.829C434.63 377.609 501.669 324.414 544.694 291.132C560.863 278.638 576.032 265.846 590.52 253.181C669.946 184.272 722.997 117.155 764.621 70.8458C803.683 27.5433 832.76 2.34212 868.681 12.0644C891.514 18.2687 915.267 37.8412 930.156 57.3711C951.208 85.0881 951.268 107.688 954.67 128.199C956.411 138.859 958.673 148.645 965.176 157.685C987.029 188.046 1037.22 192.396 1100.39 184.443C1168.89 175.915 1250.36 151.502 1313.22 129.393C1319.22 127.261 1325.08 125.129 1330.67 123.167C1423.22 89.736 1440.97 73.0418 1476.43 67.733C1483.43 66.7749 1490.47 66.2056 1497.52 66.0273C1526.88 64.8494 1556.22 68.8108 1584.37 77.7537C1622.52 89.2456 1659.98 107.454 1710.15 127.239C1723.51 132.506 1737.96 137.9 1753.71 143.358C1827.34 168.46 1903.04 186.029 1979.8 195.828" stroke="white" stroke-opacity="0.26" stroke-miterlimit="10"/>
<path d="M1 444.109C63.376 458.01 192.39 477.092 341.196 424.92C440.193 390.21 509.013 335.224 551.317 301.26C739.086 150.372 798.52 -18.1472 877.505 2.76851C899.398 8.56776 923.092 28.9931 937.54 49.6742C968.398 93.8083 948.947 127.282 967.557 154.146C1013.18 220.027 1218.42 146.449 1333.77 105.108C1446.23 64.7907 1450.4 51.8063 1499.86 49.6742C1586.21 45.9005 1631.1 82.8494 1754.01 126.429C1827.09 152.216 1902.06 171.471 1978.14 183.995" stroke="white" stroke-opacity="0.26" stroke-miterlimit="10"/>
<path d="M1 450.207C65.0369 465.408 190.049 482.827 332.311 432.894C430.508 398.333 496.406 342.814 541.812 307.101C723.196 164.615 779.769 10.2947 860.235 24.068C891.674 29.4408 923.592 40.2078 944.664 56.7101C986.068 89.1603 970.679 118.178 994.693 144.125C1047.26 200.967 1238.69 137.153 1348.52 99.2237C1455.5 62.1469 1459.82 51.6571 1512.11 53.7891C1599 57.3284 1641.85 90.0345 1757.63 131.866C1829.87 157.951 1904.26 176.732 1979.8 187.961" stroke="white" stroke-opacity="0.26" stroke-miterlimit="10"/>
<path d="M1 456.56C107.794 482.752 219.271 477.408 323.426 441.103C420.822 406.712 483.678 350.617 532.306 313.178C707.067 178.729 761.779 36.3061 842.985 45.602C884.189 50.3352 922.932 51.5291 951.788 64.0018C1001.3 85.3226 991.651 108.989 1021.83 134.36C1079.48 182.78 1258.97 128.092 1363.29 93.5737C1464.6 59.7376 1469.11 51.5291 1524.38 58.1386C1611.59 68.5431 1652.59 97.6673 1761.25 137.559C1832.63 163.923 1906.41 182.231 1981.38 192.182" stroke="white" stroke-opacity="0.26" stroke-miterlimit="10"/>
<path d="M1 467.86C104.684 494.367 213.242 489.657 314.561 454.258C411.136 420.016 470.971 363.346 522.801 324.201C690.578 197.513 744.369 82.0392 825.715 72.0824C876.605 65.8568 921.611 68.4152 958.932 76.2187C1015.32 87.9877 1012.04 104.767 1048.98 129.521C1110.14 170.499 1279.28 124.19 1378.03 92.8702C1473.85 62.4881 1478.31 56.1558 1536.63 67.4132C1624.12 84.2992 1663.32 110.204 1764.9 148.176C1835.42 174.852 1908.62 192.697 1983.02 201.35" stroke="white" stroke-opacity="0.26" stroke-miterlimit="10"/>
<path d="M1 485.066C101.567 511.872 207.204 507.777 305.676 473.254C401.451 439.141 458.244 381.895 513.295 341.065C673.968 221.903 727.199 117.453 808.466 104.405C868.84 94.725 922.151 79.9284 966.056 94.2773C1026.47 114.02 1028.73 115.385 1076.12 130.523C1133.13 176.597 1299.57 126.067 1392.8 98.0084C1483.05 70.931 1487.5 66.4537 1548.89 82.5509C1636.6 105.556 1674.02 128.668 1768.52 164.636C1838.2 191.615 1910.83 208.99 1984.64 216.339" stroke="white" stroke-opacity="0.26" stroke-miterlimit="10"/>
<path d="M1 502.677C98.4444 529.801 201.166 526.38 296.831 492.827C391.805 458.884 445.536 400.998 503.83 358.506C657.238 246.657 709.869 152.27 791.115 137.303C861.156 124.425 919.429 104 973.22 112.933C1042.58 124.446 1048.72 119.926 1103.3 132.122C1163.11 173.122 1319.84 128.348 1407.47 103.722C1492.16 79.9498 1496.6 77.1141 1561.06 98.2644C1649.11 127.09 1684.63 147.75 1772.06 181.671C1840.89 208.955 1912.96 225.862 1986.18 231.903" stroke="white" stroke-opacity="0.26" stroke-miterlimit="10"/>
<path d="M1 520.629C95.2997 548.016 195.078 545.235 287.905 512.634C382.08 478.84 432.709 420.315 494.284 376.181C640.369 271.474 692.399 186.639 773.946 170.435C853.451 154.636 917.749 141.673 980.305 131.802C1057.55 119.606 1068.64 124.659 1130.39 133.934C1193.11 169.987 1340.11 130.949 1422.32 109.671C1501.45 89.2029 1505.89 87.881 1573.41 114.212C1661.62 148.624 1695.38 167.152 1775.68 198.962C1843.67 226.54 1915.19 242.98 1987.81 247.723" stroke="white" stroke-opacity="0.26" stroke-miterlimit="10"/>
<path d="M1 538.816C75.503 561.778 176.101 569.518 279.04 532.697C372.474 499.266 419.922 439.845 484.779 394.111C623.399 296.377 674.889 220.773 756.676 203.823C845.847 185.36 916.768 167.301 987.449 150.927C1072.1 131.29 1090.51 117.581 1157.55 136.002C1227.01 155.084 1360.38 133.87 1437.07 115.875C1510.63 98.6907 1515.11 98.8186 1585.65 130.395C1674.3 170.201 1706.04 186.852 1779.41 216.488C1825.01 234.909 1893.81 259.002 1989.53 263.777" stroke="white" stroke-opacity="0.26" stroke-miterlimit="10"/>
<path d="M1 557.322C77.2439 581.543 173.76 587.662 270.155 553.058C362.789 519.798 407.094 459.609 475.273 412.341C606.329 321.45 657.078 254.865 739.426 237.51C838.283 216.659 915.967 193.355 994.573 170.35C1086.85 143.336 1109.88 122.783 1184.68 138.369C1255.98 153.293 1380.64 136.919 1451.84 122.378C1519.88 108.477 1524.52 109.756 1597.92 146.897C1687.01 191.948 1716.67 206.936 1783.03 234.312C1827.97 252.861 1895.75 276.954 1991.15 280.152" stroke="white" stroke-opacity="0.26" stroke-miterlimit="10"/>
<path d="M1 576.042C79.045 601.627 171.418 606.019 261.27 573.654C353.103 540.564 394.227 479.586 465.768 430.805C589.199 346.63 639.268 288.979 722.156 271.432C830.798 248.427 915.267 219.707 1001.7 190.008C1101.75 155.638 1129.27 128.71 1211.82 140.97C1285.06 151.843 1400.89 140.309 1466.58 129.115C1528.98 118.455 1533.92 120.907 1610.17 163.634C1699.82 213.844 1727.28 227.319 1786.65 252.371C1830.95 271.069 1897.67 295.247 1992.77 296.739" stroke="white" stroke-opacity="0.26" stroke-miterlimit="10"/>
<path d="M1 595.039C80.706 621.839 169.097 624.632 252.385 594.506C343.417 561.565 381.319 499.735 456.262 449.524C571.989 371.959 620.017 312.837 704.906 305.609C825.255 295.354 914.627 246.337 1008.82 209.921C1116.74 168.218 1152.9 113.978 1238.95 143.827C1310.84 168.836 1421.06 143.827 1481.35 136.109C1538.15 128.753 1543.39 132.228 1622.43 180.605C1712.71 235.89 1737.84 248.043 1790.27 270.686C1833.92 289.554 1899.61 313.754 1994.39 313.604" stroke="white" stroke-opacity="0.26" stroke-miterlimit="10"/>
<path d="M1 614.654C82.447 642.754 166.756 643.821 243.52 616.103C333.732 583.312 368.372 520.544 446.757 468.99C554.819 397.928 602.187 349.231 687.636 340.532C817.711 327.25 914.066 273.734 1015.97 230.581C1131.83 181.543 1170.79 123.743 1266.11 147.43C1341.71 166.235 1441.37 148.24 1496.1 143.848C1547.31 139.733 1553.01 144.211 1634.68 198.344C1725.67 258.639 1748.41 269.577 1793.91 289.746C1836.88 308.807 1901.56 332.985 1996.03 331.194" stroke="white" stroke-opacity="0.26" stroke-miterlimit="10"/>
<path d="M1 635.505C84.168 664.907 164.394 664.331 234.635 638.704C324.046 606.061 355.364 542.27 437.252 489.458C537.429 424.835 584.336 386.628 670.386 376.458C810.227 359.934 913.546 302.155 1023.09 252.264C1147 195.828 1189.19 135.682 1293.25 152.057C1372.37 164.508 1461.58 153.549 1510.87 152.59C1556.46 151.694 1562.68 157.152 1646.95 217.085C1738.7 282.348 1759.01 292.198 1797.54 309.83C1839.82 329.147 1903.6 353.24 1997.65 349.807" stroke="white" stroke-opacity="0.26" stroke-miterlimit="10"/>
<path d="M1 656.72C85.909 687.421 162.053 685.161 225.75 661.794C314.361 629.28 342.297 564.337 427.746 510.416C520.099 452.125 566.426 424.472 653.116 412.874C802.642 392.875 913.066 331.045 1030.21 274.417C1162.29 210.603 1208.04 148.986 1320.38 157.152C1402.83 163.143 1481.81 159.284 1525.62 161.822C1565.56 164.103 1572.41 170.499 1659.2 236.316C1751.83 306.526 1769.42 315.48 1801.16 330.405C1842.72 350.041 1905.42 374.006 1999.27 368.91" stroke="white" stroke-opacity="0.26" stroke-miterlimit="10"/>
<path d="M1 679.81C87.65 711.791 159.651 707.74 216.864 686.739C304.615 654.161 329.129 588.088 418.241 533.23C502.729 481.207 548.496 464.15 635.866 451.145C794.998 427.457 912.626 361.811 1037.26 298.424C1177.34 227.234 1227.75 173.825 1347.44 164.103C1432.73 157.195 1501.95 166.875 1540.31 172.908C1574.67 178.324 1582.13 185.701 1671.38 257.381C1764.92 332.558 1779.81 340.532 1804.7 352.792C1845.48 372.897 1907.28 396.585 2000.81 389.847" stroke="white" stroke-opacity="0.26" stroke-miterlimit="10"/>
<path d="M1 702.666C89.371 735.948 157.31 730.234 207.999 711.471C294.929 679.043 315.842 611.392 408.735 555.83C485.339 510.011 530.525 503.594 618.596 489.202C787.313 461.634 912.205 392.342 1044.48 322.239C1192.75 243.629 1247.9 185.786 1374.67 170.862C1462.72 160.542 1522.3 174.124 1555.14 183.782C1583.93 192.31 1592.08 200.625 1683.71 278.254C1778.24 358.335 1790.29 365.52 1808.42 375.008C1848.29 395.86 1909.3 418.95 2002.53 410.571" stroke="white" stroke-opacity="0.26" stroke-miterlimit="10"/>
<path d="M1 725.543C91.0519 760.104 155.089 752.748 199.114 736.203C285.164 703.924 302.414 634.354 399.23 578.43C467.949 538.73 512.535 543.037 601.346 527.26C779.549 495.598 911.805 422.788 1051.61 346.033C1208.06 260.025 1268.11 197.662 1401.81 177.599C1492.96 163.932 1542.63 181.266 1569.9 194.656C1593.18 206.084 1601.92 215.529 1695.98 299.127C1791.53 384.133 1800.64 390.594 1812.04 397.203C1850.61 419.569 1911.22 441.337 2004.15 431.316" stroke="white" stroke-opacity="0.26" stroke-miterlimit="10"/>
</svg>
